<?xml version="1.0" encoding="UTF-8"?>
<!-- Generator: Adobe Illustrator 16.0.0, SVG Export Plug-In . SVG Version: 6.00 Build 0)  -->
<!DOCTYPE svg PUBLIC "-//W3C//DTD SVG 1.1//EN" "http://www.w3.org/Graphics/SVG/1.1/DTD/svg11.dtd">
<svg version="1.1" id="Layer_1" xmlns="http://www.w3.org/2000/svg" xmlns:xlink="http://www.w3.org/1999/xlink" x="0px" y="0px" width="272.945px" height="398.881px" viewBox="0 0 272.945 398.881" enable-background="new 0 0 272.945 398.881" xml:space="preserve">
<path fill="#FFFFFF" d="M251.365,231.748c1.281-0.203,2.893-0.394,3.775,0.601c3.484,3.323,8.107,5.729,13.043,7.356  c1.564,0.646,3.551,1.002,4.543,2.286c0.5,1.771,0.032,3.613-0.252,5.396c-1.363,6.655-4.604,13.065-9.459,18.52  c-1.455,1.732-3.682,2.885-5.18,4.586c-2.373,2.6-4.144,5.516-6.021,8.357c2.81,1.323,5.683,2.545,8.688,3.543  c0.908,0.375,2.08,0.64,2.541,1.448c-0.188,2.091-0.354,4.222-1.198,6.22c-1.604,4.008-4.256,7.674-7.172,11.133  c-3.798,4.416-8.152,8.517-12.834,12.318c-3.25,2.77-6.938,5.181-10.097,8.03c-8.828,7.534-16.971,15.622-24.383,24.119  c-4.312,5.089-8.537,10.312-11.301,16.108c-4.199,7.753-10.093,14.854-17.041,21.118c-7.082,6.269-15.664,11.687-25.699,14.293  c-4.633,1.197-12.303,1.806-17.764,1.684c-4.012-0.091-4.467-0.163-6.693-0.321c-9.775-1.044-18.662-5.187-26.035-10.413  c-10.36-7.54-18.529-17.041-24.029-27.451c-2.513-4.339-5.797-8.334-9.225-12.224c-6.828-7.673-14.437-14.854-22.354-21.771  c-1.854-1.679-3.855-3.236-5.786-4.854c-2.012-1.686-4.227-3.191-6.162-4.93c-5.329-4.733-10.054-9.901-14.494-15.21  c-2.682-3.289-5.39-6.582-7.545-10.133c-0.926-1.421-1.126-3.05-1.837-4.537c-0.128-0.439-0.52-0.946-0.111-1.354  c0.44-0.492,1.171-0.72,1.816-0.981c3.089-1.095,6.076-2.377,8.938-3.822c-2.066-3.01-4.049-6.103-6.738-8.785  c-1.18-1.212-2.842-2.025-4.023-3.236c-3.16-3.104-5.61-6.658-7.521-10.379c-1.952-3.929-3.372-8.07-3.735-12.314  c-0.042-0.883-0.101-2.002,0.934-2.543c2.021-1.106,4.361-1.742,6.495-2.688c3.392-1.416,6.526-3.272,9.082-5.593  c0.918-0.67,1.663-1.842,3.086-1.713c2.547,0.092,5.125,0.892,6.895,2.431c2.588,2.164,3.703,5.19,4.076,8.144  c0.247,1.588,0.021,3.186-0.271,4.754c-2.043,0.539-4.086,1.1-6.068,1.765c6.785,6.78,13.193,13.974,17.443,22.069  c1.361,2.672,2.454,5.455,2.938,8.328c0.23,1.685,0.082,3.385,0.11,5.075c-2.661,1.104-5.425,2.022-8.129,3.065  c7.239,7.621,16.082,14.062,24.896,20.423c2.33,1.694,4.277,3.704,6.236,5.68c7.372,7.543,14.195,15.443,20.975,23.353  c6.865,8.178,13.676,16.088,19.785,24.651c2.05,3.06,4.318,6.083,7.408,8.514c4.516,3.803,9.906,6.563,16.336,7.359  c2.312,0.315,4.646,0.108,6.96,0.14c5.328,0.052,10.504-1.582,14.9-3.971c4.59-2.538,8.969-5.982,11.68-9.938  c5.402-8.328,11.633-15.963,17.879-23.88c6.506-8.081,13.127-16.118,20.123-23.93c3.519-3.826,6.931-7.784,11.426-10.894  c7.939-6.019,15.878-12.149,22.275-19.328c-2.728-0.826-5.371-1.819-8.037-2.772c-1.062-4.539,0.492-9.15,2.459-13.381  c4.027-8.226,10.285-15.56,16.9-22.515c-1.984-0.653-4.039-1.146-6.07-1.692c-0.971-3.89-0.422-8.16,2.162-11.578  C246.314,233.565,248.698,232.187,251.365,231.748 M249.017,233.629c-2.037,1.021-3.438,2.718-4.261,4.521  c-1.097,2.566-1.536,5.416-0.761,8.082c1.893,0.552,3.836,0.982,5.715,1.59c2.132-2.145,3.344-4.79,4.094-7.45  c0.574-2.537,1.256-5.259,0.036-7.748C252.17,232.668,250.464,232.916,249.017,233.629 M19.024,234.582  c-1.07,1.637-0.75,3.56-0.521,5.326c0.612,3.512,1.981,7.098,4.832,9.827c1.95-0.446,3.811-1.157,5.757-1.633  c0.565-2.18,0.218-4.424-0.42-6.562c-0.746-2.31-2.265-4.59-4.819-5.847C22.406,234.94,20.67,234.806,19.024,234.582   M255.015,241.071c-0.812,2.438-1.656,4.994-3.639,6.992c-1.887,1.677-3.557,3.498-5.191,5.33  c-3.188,3.467-6.104,7.111-8.695,10.898c-2.723,4.023-5.152,8.24-6.404,12.746c-0.541,2.26-1.108,4.621-0.401,6.902  c2.104-1.086,3.679-2.795,4.485-4.717c0.521-1.185,0.699-2.478,1.533-3.56c1-1.379,2.744-2.371,4.676-2.646  c1.136-0.148,2.345,0.219,3.035,0.975c1.728,1.754,4.021,3.035,6.312,4.238c2.676-4.082,5.17-8.476,9.64-11.479  c3.272-2.938,5.582-6.518,7.493-10.146c2.255-4.494,3.82-9.31,3.804-14.188c-2.308-1.371-5.104-1.965-7.584-3.068  c-2.976-1.215-5.674-2.818-8.133-4.641C255.894,236.847,255.714,239.002,255.015,241.071 M11.528,240.229  c-2.744,1.58-5.914,2.521-8.863,3.791c-0.514,0.289-1.357,0.496-1.332,1.119c-0.13,1.26,0.175,2.512,0.396,3.752  c1.089,5.396,3.591,10.563,7.063,15.219c1.521,2.031,3.209,4.014,5.447,5.562c4.015,2.854,6.27,6.895,8.938,10.562  c2.3-1.279,4.558-2.68,6.289-4.48c1.061-1.146,3.116-0.998,4.565-0.492c2.133,0.715,3.535,2.398,4.077,4.186  c0.77,2.498,2.53,4.896,5.327,6.185c0.298-2.618-0.062-5.254-0.955-7.771c-1.785-5.15-4.951-9.891-8.414-14.396  c-3.754-4.76-7.859-9.355-12.539-13.541c-1.819-1.855-2.697-4.181-3.533-6.422c-0.803-2.176-1.219-4.441-1.124-6.713  C15.136,237.979,13.46,239.237,11.528,240.229 M238.398,275.616c-1.334,1.24-1.439,2.978-2.197,4.445  c-0.781,1.695-2.223,3.107-3.799,4.351c2.006,0.637,4.012,1.271,5.996,1.938c1.524-1.726,2.877-3.566,4-5.488  c0.899-1.512,1.237-3.199,1.389-4.869c0.033-0.746-0.396-1.686-1.402-1.822C240.859,273.937,239.366,274.709,238.398,275.616   M30.982,275.955c-0.445,0.537-1.037,1.094-0.944,1.801c0.123,2.043,0.75,4.097,2.059,5.851c1.107,1.509,2.105,3.104,3.549,4.422  c2.079-0.463,4.012-1.314,5.998-2c-2.388-1.512-3.969-3.728-4.721-6.107c-0.432-1.504-1.558-2.918-3.277-3.619  C32.817,275.959,31.872,276.013,30.982,275.955 M245.32,276.407c-0.404,4.679-3.703,8.718-7.195,12.251  c-6.832,7.446-15.205,13.792-23.51,20.101c-2.389,1.644-4.221,3.729-6.17,5.695c-7.084,7.583-13.656,15.472-20.131,23.396  c-6.412,7.928-12.703,15.921-18.472,24.175c-1.711,2.387-2.985,4.466-4.976,6.713c-2.814,3.319-7.056,6.134-11.267,8.239  c-4.651,2.312-10.082,3.664-15.545,3.533c-2.673,0.094-5.354,0-7.961-0.492c-9.181-1.688-16.358-7.028-21.033-13.607  c-4.646-6.838-9.931-13.062-15.213-19.567c-6.932-8.396-14.05-16.688-21.488-24.797c-3.438-3.666-6.812-7.396-10.707-10.747  c-7.965-5.821-16.059-11.581-23.025-18.233c-3.217-3.133-6.268-6.426-8.469-10.116c-0.919-1.491-1.256-3.153-1.436-4.804  c-4.744,3.498-10.463,5.897-16.229,8.049c0.805,1.592,1.001,3.346,1.973,4.887c2.271,3.688,5.076,7.133,7.902,10.543  c4.225,4.933,8.623,9.779,13.582,14.232c2.386,2.054,4.935,3.973,7.425,5.934c4.209,3.562,8.412,7.14,12.38,10.885  c7.944,7.472,15.696,15.175,21.854,23.737c2.359,3.209,3.849,6.773,6.098,10.027c2.68,4.028,5.771,7.884,9.275,11.472  c5.994,6.278,13.238,11.894,21.844,15.688c6.07,2.66,12.914,4.284,19.833,4.12c4.79,0.199,5.758,0.017,8.771-0.071  c8.81-0.267,16.381-3.205,23.459-7.392c8.101-4.83,14.84-11.062,20.43-17.85c3.113-3.874,5.978-7.906,8.072-12.225  c1.926-3.76,4.447-7.276,7.131-10.693c6.718-8.378,14.396-16.197,22.502-23.687c3.793-3.402,7.572-6.832,11.806-9.877  c7.793-5.958,15.061-12.52,20.383-20.128c2.334-3.459,4.406-7.236,4.396-11.267c0.123-0.622-0.797-0.722-1.289-0.978  C254.968,281.733,249.771,279.483,245.32,276.407"/>
<path fill="#FFFFFF" d="M124.802,300.797c-15.187,5.114-18.479,7.477-18.866,7.904c-1.622,1.799,18.499-3.371,31.533-3.371  c13.031,0,30.555,3.562,31.855,2.971c0.887-0.406-3.787-4.436-12.309-5.879c-5.184-0.877-10.104-3.883-11.035-5.056  c-1.104-1.385-0.998-18.723-0.732-19.733c0.482-1.877,4.834-7.603,7.213-7.603c2.386,0,6.871,2.89,11.355,2.728  c2.166-0.069,5.646-0.562,6.344-2.646c0.74-2.227-1.361-6.067-0.672-6.817c1.338-1.44,3.719,1.127,6.234,1.127  c1.332,0,4.678-0.715,5.473-2.909c0.723-1.996-1.088-5.472-0.422-6.078c1.399-1.277,6.854-1.494,8.83-3.209  c4.619-4.013-0.562-4.013-0.697-5.451c-0.146-1.443,5.303-5.135,1.318-8.825c-3.982-3.69-5.949,2.407-7.625,2.407  c-1.688,0-0.031-2.729-3.242-2.789c-3.205-0.062-5.73,8.604-7.519,8.666c-1.791,0.061-0.787-1.914-2.785-1.866  c-5.206,0.12-5.729,9.563-7.622,9.621c-1.889,0.067-1.05-2.22-2.992-2.157c-4.049,0.113-4.347,6.842-7.679,11.127  c-2.056,2.646-4.651,3.551-5.515,3.551c-2.265,0-2.104-0.541-2.104-0.541s-0.052-13.232,0.213-14.137  c0.264-0.908,2.729-4.15,3.987-4.15c1.269,0,9.834,0.478,11.457-1.395c1.632-1.861,0.743-4.088,1.313-4.63  c0.58-0.538,5.473,0.485,7.312-2.224c1.839-2.707,0.313-5.175,1-6.193c0.683-1.025,6.041-0.848,5.935-5.119  c-0.103-4.268-2.096-2.223-2.096-3.727c0-1.511,4.355-4.689,1.361-7.281c-3-2.588-5.573,2.285-6.786,2.229  c-1.203-0.062-0.94-2.144-3.147-2.229c-4.939-0.18-3.576,7.941-5.199,7.941c-1.633,0-1.312-2.197-3.047-2.228  c-3.785-0.062-2.687,9.807-4.371,9.928c-1.676,0.123-1.059-1.229-2.262-1.2c-2.832,0.057-2.521,10.103-3.779,11.368  c-1.26,1.265-2.207,1.744-2.572,1.084c-0.367-0.666-1.264-9.93-0.631-11.014c0.631-1.078,6.355-6.675,6.412-10.646  c0.057-3.968-3.26-2.347-3.361-3.796c-0.108-1.438,2.841-2.823,2.841-6.014c0-3.188-3.312-2.162-3.476-3.668  c-0.162-1.504,1.582-0.899,1.582-3.552c0-4.512-4.102-2.646-4.84-3.188c-0.74-0.541,1.629-5.896-3.256-5.896  c-4.887,0-2.904,4.921-3.521,5.596c-1.105,1.202-6.206-1.681-5.992,2.948c0.138,3.005,1.473,3.605,1.572,4.748  c0.106,1.146-3.624,1.146-3.678,3.797c-0.053,2.646,2.995,3.787,2.995,5.228c0,1.449-2.731,1.515-2.731,4.099s5.52,8.42,6.205,9.508  c0.682,1.083,0.837,11.607,0.102,12.451c-0.734,0.844-2.475-0.844-2.893-1.805c-0.418-0.96-0.577-6.438-1.416-7.88  c-0.841-1.446-3.102-0.243-3.521-0.967c-0.424-0.72,0.841-9.442-2.159-9.687c-1.519-0.123-1.469,1.265-2.574,1.265  c-1.103,0-1.627-8.604-4.466-8.726c-2.839-0.117-2.049,2.351-3.521,2.351c-1.469,0-4.15-6.263-7.303-2.711  c-3.155,3.551,0.684,5.655,0.684,7.28s-2.18,1.687-2.207,4.207c-0.057,4.156,4.148,4.273,4.782,5.48  c0.626,1.197-1.19,1.625-1.315,3.307c-0.418,5.775,7.83,2.947,8.83,4.031c0.994,1.074-0.476,2.764-0.476,4.086  c0,3.492,10.038,1.449,11.616,2.354c1.574,0.9,3.783,3.828,4.893,5.283c1.101,1.451,1.361,13.127,0.103,14.027  c-0.468,0.334-3.529,1.145-5.784-1.686c-2.088-2.625-3.601-7.107-5.307-10.291c-1.414-2.641-3.146-4.252-3.833-4.271  c-2.422-0.057-2.051,2.529-3.473,2.529c-1.418,0-7.62-11.611-9.511-11.611c-1.896,0-1.739,3.01-3.474,3.01  c-1.735,0-4.046-7.821-7.093-7.883c-3.052-0.057-2.104,3.312-4.257,3.369c-2.155,0.061-3.84-3.854-6.729-0.121  c-2.893,3.729,2.313,6.438,2.156,7.943c-0.159,1.506-2.365,1.619-2.419,4.693c-0.024,1.512,1.749,3.121,4.101,3.604  c2.406,0.504,5.405-0.127,5.988,0.729c1.16,1.685-0.769,2.338-0.734,4.688c0.055,3.793,3.149,5.271,5.102,5.235  c3.1-0.063,7.036-4.213,8.197-2.651c1.157,1.569-1.419,3.135-1.206,5.235c0.207,2.107,2.572,5.177,6.565,5.119  c3.993-0.063,6.676-2.473,11.248-2.473s8.249,4.031,9.036,5.596c0.792,1.564,0.58,17.152-0.153,18.592  C129.918,296.344,128.59,299.526,124.802,300.797"/>
<path fill="#FFFFFF" d="M83.204,259.847c2.7,3.715,1.971,9.229-1.562,10.307c-2.25,0.688-1.646-0.137-3.211,0.164  c-3.124,0.6-7.537-0.111-8.304-1.808c-0.843-1.862,0.952-6.338,3.086-7.981c0.601-0.457,0.241-1.203,0.843-1.726  C76.259,256.897,80.638,256.315,83.204,259.847 M77.083,263.858c-0.86-1.971-1.24-2.606-2.692-2.53  c-1.454,0.079-4.182,4.856-3.061,6.622c1.125,1.763,5.968,1.722,6.606,1.322C78.582,268.875,77.893,265.709,77.083,263.858"/>
<path fill="#FFFFFF" d="M95.873,229.642c-2.891,3.569-8.405,4.305-10.361,1.164c-1.244-1.984-0.297-1.619-0.988-3.054  c-1.395-2.871-1.854-7.308-0.416-8.487c1.583-1.298,6.373-0.726,8.514,0.909c0.6,0.455,1.217-0.084,1.881,0.365  C96.906,222.17,98.611,226.246,95.873,229.642 M90.406,224.772c1.675-1.348,2.198-1.875,1.74-3.264  c-0.455-1.385-5.771-2.773-7.188-1.23c-1.41,1.545-0.111,6.214,0.438,6.729C85.952,227.521,88.828,226.037,90.406,224.772"/>
<path fill="#FFFFFF" d="M190.448,257.856c2.566-3.524,6.947-2.942,9.146-1.043c0.597,0.523,0.239,1.271,0.841,1.726  c2.131,1.646,3.932,6.118,3.09,7.981c-0.771,1.701-5.178,2.402-8.306,1.808c-1.563-0.302-0.963,0.521-3.213-0.16  C188.472,267.09,187.748,261.575,190.448,257.856 M196.568,261.869c-0.81,1.854-1.502,5.016-0.857,5.414  c0.64,0.401,5.48,0.442,6.609-1.32c1.125-1.769-1.604-6.545-3.062-6.621C197.804,259.26,197.429,259.903,196.568,261.869"/>
<path fill="#FFFFFF" d="M180.289,232.047c-2.739-3.396-1.034-7.474,1.371-9.103c0.662-0.444,1.283,0.093,1.881-0.364  c2.141-1.634,6.93-2.209,8.511-0.91c1.442,1.185,0.985,5.619-0.409,8.487c-0.697,1.433,0.256,1.066-0.994,3.054  C188.693,236.354,183.179,235.621,180.289,232.047 M185.757,227.178c1.571,1.269,4.448,2.748,5.002,2.234  c0.556-0.519,1.851-5.183,0.444-6.729c-1.416-1.541-6.732-0.151-7.188,1.23C183.558,225.306,184.08,225.836,185.757,227.178"/>
<path fill="#FFFFFF" d="M120.453,211.697c-3.658,2.776-9.19,2.161-10.336-1.354c-0.729-2.23,0.101-1.644-0.227-3.201  c-0.664-3.113-0.045-7.537,1.636-8.34c1.845-0.881,6.355,0.828,8.041,2.928c0.473,0.586,1.21,0.213,1.741,0.812  C123.258,204.688,123.932,209.058,120.453,211.697 M116.317,205.655c1.953-0.896,2.584-1.282,2.478-2.741  c-0.109-1.449-4.94-4.082-6.685-2.916c-1.741,1.153-1.603,5.995-1.187,6.629C111.342,207.26,114.486,206.504,116.317,205.655"/>
<path fill="#FFFFFF" d="M154.275,212.856c-3.48-2.635-2.808-7-0.855-9.162c0.527-0.59,1.271-0.223,1.736-0.807  c1.688-2.104,6.197-3.807,8.047-2.93c1.682,0.809,2.301,5.229,1.635,8.34c-0.328,1.562,0.496,0.977-0.227,3.209  C163.464,215.022,157.927,215.633,154.275,212.856 M158.407,206.822c1.832,0.854,4.98,1.6,5.395,0.967  c0.416-0.638,0.556-5.476-1.188-6.636c-1.74-1.157-6.572,1.476-6.684,2.922C155.825,205.537,156.457,205.92,158.407,206.822"/>
<path fill="#FFFFFF" d="M28.634,84.599c0-0.729,0.589-1.243,1.241-1.236h213.184c0.646,0,1.262,0.492,1.262,1.236V192.34  c0,111.488-106.916,173.133-107.219,173.31c-0.306,0.182-0.895,0.206-1.249,0c-0.357-0.21-107.219-62.101-107.219-173.312V84.599   M125.97,142.472c-2.48,1.872-5.568,2.686-8.604,3.097c-1.374,0.217-2.791,0.248-4.12,0.684c-0.938,0.273-1.525,1.098-2.111,1.822  c-0.556,0.744-1.279,1.336-1.809,2.09c-0.309,0.555,0.126,1.176,0.58,1.496c1.226,0.905,2.674,1.424,4.035,2.079  c2.724,1.324,5.837,1.011,8.762,0.863c-0.621,0.674-1.292,1.308-1.929,1.967c-0.312,0.356-0.741,0.74-0.628,1.271  c0.523,0.67,1.428,0.797,2.213,0.912c1.438,0.186,2.973,0.192,4.289-0.48c1.682-0.796,3.379-1.573,5.159-2.104  c1.708-0.488,3.499-0.234,5.243-0.151c-0.689,0.854-1.484,1.696-1.66,2.835c2.518-0.046,5.04-0.067,7.551-0.301  c1.459-0.163,2.994-0.41,4.215-1.291c0.893-0.656,1.174-1.782,1.549-2.769c2.849-0.321,5.242,1.47,7.859,2.247  c3.278,1.293,6.871,0.544,10.133-0.404c0.891-0.356,1.713-1.316,1.533-2.319c-0.51-0.808-1.562-0.949-2.371-1.302  c-1.474-0.472-2.869-1.223-4.426-1.369c-2.07-0.16-4.052,0.886-6.129,0.535c-1.294-0.189-2.344-0.998-3.412-1.695  c-1.188-0.811-2.559-1.442-3.449-2.625c-1.211-1.6-2.053-3.514-3.672-4.771c-2.916-2.355-6.508-4.32-10.376-4.08  C131.207,138.836,128.438,140.621,125.97,142.472 M114.127,149.265c0.317-0.694,0.681-1.536,1.524-1.688  c0.833-0.031,1.646,0.202,2.46,0.375C116.945,148.715,115.614,149.931,114.127,149.265 M33.028,193.652  c0,104.561,97.027,163.889,103.473,167.715c6.446-3.826,103.468-63.154,103.468-167.715v-23.365H33.028V193.652 M208.099,92.078  c-1.595,0.381-2.863,1.454-4.186,2.367c0.084,4.531,0.229,9.061,0.261,13.587c2.735-0.45,5.56-0.432,8.278,0.134  c1.562,0.282,2.949,1.199,4.561,1.269c0.105-3.644-0.275-7.279-0.257-10.923c0.019-1.545-0.026-3.09-0.112-4.631  C214.189,92.185,211.043,91.277,208.099,92.078 M217.293,93.778c0.078,2.416,0.199,4.822,0.277,7.24  c0.073,2.774-0.086,5.578,0.299,8.341c3.621-2.128,8.017-1.63,11.908-0.592c0.245-4.967,0.082-9.948,0.104-14.924  c-1.203-0.787-2.438-1.643-3.903-1.823C223,91.599,219.884,92.244,217.293,93.778 M230.646,94.291  c0.092,3.279-0.162,6.555-0.086,9.832c0.01,1.568-0.084,3.139-0.102,4.711c1.609,0.978,2.943,2.383,3.912,3.994  c0-5.871,0.013-11.732,0.002-17.6C233.111,95.015,231.855,94.719,230.646,94.291 M200.339,94.971  c0.011,5.691-0.015,11.383,0.015,17.08c0.901-0.971,1.773-1.967,2.594-3.008c0.619-0.746,0.439-1.791,0.477-2.687  c-0.18-3.929-0.059-7.862-0.104-11.794C202.312,94.652,201.327,94.793,200.339,94.971 M204.707,108.648  c-0.57,0.007-0.926,0.499-1.264,0.886c-0.845,1.04-1.688,2.085-2.507,3.14c4.073,0.067,8.142-0.008,12.216,0.047  c-0.339-1.36,0.932-2.146,1.747-2.975C211.724,108.328,208.116,108.18,204.707,108.648 M218.988,109.586  c1.135,0.687,1.795,1.847,2.146,3.094c4.114,0.008,8.229,0.07,12.347-0.027c-1.15-1.109-2.02-2.745-3.701-3.107  C226.289,108.535,222.398,107.98,218.988,109.586 M213.724,111.924c0.842,1.426,2.432,2.492,4.139,2.07  c1.176-0.115,1.693-1.279,2.322-2.111c-0.709-1.483-2.427-1.967-3.951-1.838C215.152,110.258,214.452,111.184,213.724,111.924   M46.386,92.549c-1.597,0.383-2.869,1.453-4.188,2.365c0.077,4.531,0.227,9.06,0.258,13.588c2.736-0.449,5.562-0.43,8.282,0.133  c1.562,0.279,2.945,1.199,4.561,1.271c0.105-3.644-0.274-7.278-0.259-10.923c0.016-1.544-0.023-3.089-0.114-4.63  C52.469,92.65,49.329,91.748,46.386,92.549 M55.58,94.248c0.076,2.416,0.199,4.826,0.274,7.237c0.081,2.782-0.083,5.585,0.3,8.345  c3.624-2.125,8.021-1.632,11.91-0.593c0.247-4.966,0.08-9.944,0.101-14.919c-1.204-0.788-2.437-1.643-3.903-1.829  C61.282,92.069,58.163,92.715,55.58,94.248 M68.93,94.762c0.095,3.279-0.157,6.548-0.09,9.828c0.015,1.567-0.075,3.141-0.097,4.716  c1.607,0.977,2.939,2.383,3.916,3.991c-0.004-5.869,0.001-11.735,0.001-17.597C71.393,95.484,70.14,95.19,68.93,94.762   M38.625,95.441c0.005,5.689-0.016,11.382,0.012,17.078c0.905-0.967,1.779-1.964,2.596-3.005c0.621-0.747,0.438-1.789,0.473-2.69  c-0.172-3.924-0.051-7.857-0.104-11.79C40.599,95.125,39.612,95.265,38.625,95.441 M42.99,109.121  c-0.576,0.006-0.924,0.496-1.266,0.887c-0.843,1.041-1.687,2.08-2.502,3.138c4.069,0.065,8.139-0.013,12.211,0.046  c-0.334-1.359,0.935-2.145,1.756-2.975C50.007,108.799,46.401,108.651,42.99,109.121 M57.269,110.057  c1.138,0.686,1.8,1.846,2.146,3.098c4.118,0.003,8.232,0.064,12.352-0.029c-1.154-1.109-2.019-2.748-3.701-3.108  C64.572,109.004,60.679,108.449,57.269,110.057 M52.008,112.395c0.844,1.422,2.433,2.488,4.141,2.07  c1.181-0.114,1.693-1.278,2.319-2.111c-0.704-1.482-2.427-1.969-3.95-1.836C53.438,110.727,52.73,111.65,52.008,112.395   M239.972,135.703L136.498,92.236L33.03,135.703v29.344l103.469-43.467l103.475,43.467L239.972,135.703L239.972,135.703z"/>
<path fill="#FFFFFF" d="M84.953,39.186c0.795,0,1.447,0.648,1.447,1.445s-0.652,1.442-1.447,1.442c-0.797,0-1.441-0.646-1.441-1.442  S84.156,39.186,84.953,39.186"/>
<path fill="#FFFFFF" d="M88.942,34.899c0.795,0,1.445,0.646,1.445,1.442c0,0.796-0.65,1.447-1.445,1.447  c-0.799,0-1.443-0.65-1.443-1.447C87.499,35.544,88.143,34.899,88.942,34.899"/>
<path fill="#FFFFFF" d="M93.32,31.224c0.797,0,1.442,0.644,1.442,1.442c0,0.795-0.646,1.441-1.442,1.441  c-0.795,0-1.446-0.646-1.446-1.441C91.873,31.867,92.525,31.224,93.32,31.224"/>
<path fill="#FFFFFF" d="M98.028,27.613c0.795,0,1.444,0.645,1.444,1.446c0,0.792-0.649,1.442-1.444,1.442  c-0.799,0-1.444-0.65-1.444-1.442C96.583,28.256,97.229,27.613,98.028,27.613"/>
<path fill="#FFFFFF" d="M102.91,24.551c0.791,0,1.442,0.646,1.442,1.443s-0.651,1.442-1.442,1.442c-0.795,0-1.446-0.646-1.446-1.442  C101.464,25.195,102.115,24.551,102.91,24.551"/>
<path fill="#FFFFFF" d="M108.395,21.728c0.797,0,1.444,0.644,1.444,1.446c0,0.791-0.647,1.442-1.444,1.442s-1.447-0.651-1.447-1.442  C106.948,22.371,107.599,21.728,108.395,21.728"/>
<path fill="#FFFFFF" d="M113.818,19.494c0.797,0,1.447,0.646,1.447,1.442s-0.65,1.442-1.447,1.442c-0.79,0-1.442-0.646-1.442-1.442  S113.028,19.494,113.818,19.494"/>
<path fill="#FFFFFF" d="M119.224,18.01c0.795,0,1.439,0.646,1.439,1.443c0,0.795-0.646,1.442-1.439,1.442  c-0.799,0-1.447-0.647-1.447-1.442C117.776,18.654,118.426,18.01,119.224,18.01"/>
<path fill="#FFFFFF" d="M186.907,39.186c0.797,0,1.441,0.648,1.441,1.445s-0.646,1.442-1.441,1.442s-1.447-0.646-1.447-1.442  C185.459,39.834,186.111,39.186,186.907,39.186"/>
<path fill="#FFFFFF" d="M182.916,34.899c0.798,0,1.438,0.646,1.438,1.442c0,0.796-0.646,1.447-1.438,1.447  c-0.799,0-1.448-0.65-1.448-1.447C181.468,35.544,182.118,34.899,182.916,34.899"/>
<path fill="#FFFFFF" d="M178.539,31.224c0.795,0,1.44,0.644,1.44,1.442c0,0.795-0.646,1.441-1.44,1.441  c-0.799,0-1.443-0.646-1.443-1.441C177.095,31.867,177.741,31.224,178.539,31.224"/>
<path fill="#FFFFFF" d="M173.828,27.613c0.804,0,1.444,0.645,1.444,1.446c0,0.792-0.644,1.442-1.444,1.442  c-0.793,0-1.439-0.65-1.439-1.442C172.388,28.256,173.035,27.613,173.828,27.613"/>
<path fill="#FFFFFF" d="M168.947,24.549c0.799,0,1.449,0.646,1.449,1.447c0,0.791-0.65,1.442-1.449,1.442  c-0.789,0-1.438-0.651-1.438-1.442C167.509,25.194,168.157,24.549,168.947,24.549"/>
<path fill="#FFFFFF" d="M163.464,21.728c0.804,0,1.444,0.644,1.444,1.446c0,0.791-0.644,1.442-1.444,1.442  c-0.796,0-1.444-0.651-1.444-1.442C162.019,22.371,162.668,21.728,163.464,21.728"/>
<path fill="#FFFFFF" d="M158.037,19.494c0.795,0,1.444,0.646,1.444,1.442s-0.649,1.442-1.444,1.442  c-0.793,0-1.441-0.646-1.441-1.442S157.244,19.494,158.037,19.494"/>
<path fill="#FFFFFF" d="M152.636,18.01c0.799,0,1.447,0.646,1.447,1.443c0,0.795-0.648,1.442-1.447,1.442  c-0.803,0-1.441-0.647-1.441-1.442C151.195,18.654,151.834,18.01,152.636,18.01"/>
<path fill="#FFFFFF" d="M132.802,0.021c1.898-0.028,3.805-0.028,5.7,0c-0.271,1.623-0.729,3.212-0.996,4.836  c1.349-0.53,2.656-1.129,4.007-1.687c0.008,1.875,0.017,3.739-0.019,5.604c-1.332-0.354-2.654-0.748-3.998-1.053  c0.488,1.446,0.99,2.888,1.463,4.339c0.312,0.995,1.021,1.802,1.373,2.779c0.273,1.268,0.199,2.709-0.58,3.791  c-0.328,0.463-0.711,0.89-1.094,1.316c1.318,0.37,2.594,0.889,3.75,1.624c1.518-1.614,3.482-3.187,5.816-3.112  c0.465-0.01,0.924-0.004,1.393,0.008c-1.021,1.732-2.627,3.064-3.412,4.955c10.021,2.09,19.551,6.334,27.916,12.199  c3.303,2.348,6.461,4.914,9.283,7.819c0.781,0.812,1.701,1.509,2.316,2.468c-0.193,0.838-0.604,1.605-0.945,2.387  c-2.396,5.427-4.783,10.857-7.15,16.301c0.408,0.738,0.857,1.725,0.191,2.465c-0.521,0.863-1.627,0.592-2.478,0.679  c-0.185,0.355-0.373,0.713-0.556,1.074c0.729,1,1.347,2.306,0.752,3.53c-0.438,1.222-1.819,1.533-2.974,1.598  c-0.073,0.105-0.235,0.329-0.319,0.439c0.726,0.615,1.479,1.293,1.752,2.244c0.562,1.332,0.041,3.15-1.34,3.736  c-0.834,0.4-1.771,0.174-2.606-0.061c-9.438-2.863-19.312-3.862-29.112-4.482c-2.33,0.046-4.657-0.497-6.985-0.136  c-10.658,0.544-21.418,1.468-31.689,4.526c-1.031,0.289-2.234,0.65-3.205-0.004c-0.955-0.537-1.346-1.688-1.209-2.744  c-0.035-1.446,1.307-2.306,1.9-3.496c-1.157-0.071-2.544-0.201-3.155-1.338c-0.83-1.199-0.325-2.736,0.632-3.688  c-0.188-0.413-0.364-0.828-0.542-1.242c-0.542,0-1.088,0.004-1.626,0.013c-0.855-0.816-0.964-1.977-0.673-3.068  c-2.688-6.258-5.489-12.471-8.188-18.729c10.381-11.457,24.562-19.218,39.61-22.541c-0.883-1.816-2.323-3.246-3.479-4.873  c1.744-0.103,3.511,0.082,5.211,0.493c1.037,0.208,1.711,1.089,2.376,1.832c1.051-0.397,2.121-0.747,3.215-1.028  c-0.825-0.914-1.551-1.998-1.668-3.265c-0.145-1.243,0.522-2.366,1.009-3.467c0.764-1.754,1.412-3.562,2.098-5.349  c-1.509,0.168-3.016,0.418-4.504,0.728c-0.021-1.763-0.021-3.517-0.014-5.271c1.513,0.588,2.997,1.25,4.531,1.795  C133.993,3.316,133.398,1.67,132.802,0.021 M134.918,12.438c-1.527,0.44-2.695,1.903-2.726,3.504  c-0.186,1.979,1.439,3.896,3.429,4.03c2.245,0.296,4.427-1.785,4.229-4.042C139.732,13.599,137.19,11.696,134.918,12.438   M130.373,21.42c1.052,4.974,2.182,9.929,3.188,14.912c1.367,0.064,2.799,0.463,4.141,0.182c0.611-1.477,0.881-3.061,1.363-4.583  c0.897-3.276,1.973-6.519,2.729-9.821c-1.031-0.83-2.348-1.299-3.639-1.511c-1.429,2.94-1.638,6.276-2.117,9.459  c-0.172-3.312-0.369-6.781-2.078-9.729C132.73,20.578,131.526,20.936,130.373,21.42 M93.076,40.518  c-0.508,0.443-1.06,0.872-1.396,1.463c-0.112,1.307,0.258,2.592,0.306,3.895c0.07,1.613-0.013,3.225,0.017,4.84  c1.921-1.258,3.753-2.881,6.091-3.254c0.864,2,0.767,4.229,1.42,6.297c-2.146,0.711-4.703,1.27-5.979,3.32  c0.459,0.512,0.885,1.12,1.568,1.348c2.497,0.867,5.176,0.949,7.793,0.891c1.463,0.004,2.984-0.264,4.208-1.113  c1.355-0.94,2.845-2.047,3.271-3.729c0.234-1.709,0.317-3.699-1.021-5.005c-2.508-0.164-4.532,1.537-6.371,3  c-0.476-2.039-1.15-4.33-0.104-6.303c0.621-1.213,2.029-1.515,3.219-1.873c0.426-0.186,1.105-0.25,1.088-0.85  c0.2-1.611-0.072-3.288,0.439-4.859c0.3-0.992,0.942-1.816,1.569-2.627c2.221,1.705,3.417,4.358,4.282,6.946  c1.184-0.332,2.449-0.737,3.668-0.317c2.418,0.666,3.803,2.98,4.91,5.051c-2.046,0.166-4.166,0.152-6.082,0.981  c-0.537,0.226-0.912,0.683-1.307,1.099c0.225,1.002,0.234,2.041,0.4,3.061c0.342,1.326,1.703,2.05,2.961,2.293  c2.368,0.631,4.842,0.176,7.195-0.33c2.383-0.621,4.883-1.562,6.438-3.578c1.099-1.277,0.879-3.136,1.849-4.486  c-2.489,1.166-5.198,1.916-7.952,1.994c-0.466,0.09-0.447-0.519-0.52-0.808c-0.252-2.369-0.189-4.785,0.276-7.123  c2.364,0.694,4.55,1.864,6.858,2.724c-0.938-2.16-2.189-4.241-2.607-6.582c-0.162-0.521,0.493-0.701,0.764-1.022  c-1-3.976-2.438-7.846-4.141-11.576C114.034,26.83,102.561,32.506,93.076,40.518 M145.795,24.299  c-1.711,3.729-3.081,7.605-4.168,11.561c0.453,0.321,0.921,0.736,0.719,1.363c-0.449,2.215-1.639,4.195-2.553,6.242  c2.3-0.852,4.484-1.98,6.813-2.741c0.714,2.599,0.668,5.375,0.183,8.006c-2.881-0.188-5.775-0.758-8.357-2.095  c1.107,1.179,0.688,3.007,1.75,4.209c1.734,2.252,4.562,3.25,7.23,3.896c2.09,0.398,4.278,0.933,6.397,0.37  c1.127-0.259,2.422-0.693,2.931-1.854c0.496-1.228,0.604-2.635,0.319-3.932c-1.95-1.639-4.733-1.47-7.144-1.667  c1.07-1.935,2.303-4.005,4.422-4.922c1.345-0.616,2.841-0.255,4.187,0.164c0.779-2.646,2.146-5.175,4.285-6.972  c0.685,0.887,1.36,1.832,1.64,2.947c0.459,1.453,0.168,2.988,0.338,4.482c0.05,0.709,0.865,0.833,1.401,1.03  c1.196,0.315,2.593,0.747,3.062,2.032c0.685,1.944,0.279,4.08-0.244,6.021c-1.639-1.199-3.272-2.729-5.387-2.942  c-1.024-0.164-1.842,0.724-1.955,1.676c-0.248,1.604-0.436,3.529,0.736,4.836c0.938,1.043,1.992,2.023,3.258,2.654  c1.979,0.906,4.215,0.619,6.328,0.635c2.164-0.147,4.438-0.41,6.271-1.668c-0.159-0.5-0.084-1.154-0.552-1.5  c-1.484-1.193-3.319-1.863-5.153-2.304c0.535-2.128,0.444-4.407,1.423-6.417c2.297,0.514,4.127,2.051,6.034,3.324  c-0.454-2.736,0.136-5.484,0.354-8.208c0.117-0.688-0.496-1.146-0.941-1.556C169.865,32.703,158.185,26.855,145.795,24.299   M109.606,59.842c-4.844,1.355-9.674,2.9-14.189,5.143c-1.31,0.432-0.291,2.696,0.9,2.016c10.565-4.273,21.736-7.354,33.158-7.979  c3.441,0.07,6.904-0.178,10.334,0.204c6.45,0.341,12.892,1.122,19.207,2.45c5.526,1.173,10.991,2.771,16.146,5.117  c0.332,0.131,0.68,0.267,1.033,0.319c0.777,0.228,1.139-0.677,1.596-1.12c-0.479-0.535-1.02-1.025-1.69-1.283  c-5.711-2.459-11.761-4.045-17.834-5.322c-6.332-1.301-12.742-2.271-19.19-2.689c-3.004-0.342-6.021-0.129-9.039-0.195  C123.128,56.857,116.276,58.022,109.606,59.842 M125.948,63.297c-1.523,0.436-2.095,2.519-1.114,3.721  c0.627,0.818,1.72,1.012,2.698,0.979c5.684-0.046,11.364-0.014,17.051-0.014c0.776-0.008,1.625-0.057,2.227-0.616  c0.994-0.78,1.178-2.374,0.311-3.323c-0.574-0.791-1.627-0.901-2.535-0.91c-5.688,0.009-11.374,0.017-17.062-0.004  C126.99,63.142,126.451,63.149,125.948,63.297 M116.682,64.168c-1.419,0.25-2.84,0.463-4.257,0.707  c-0.758,0.123-1.624,0.387-1.939,1.164c-0.691,1.18,0.25,2.928,1.658,2.896c1.595-0.079,3.169-0.474,4.76-0.675  c0.828-0.16,1.819-0.229,2.374-0.952c0.693-0.814,0.531-2.154-0.312-2.8C118.356,63.909,117.446,64.059,116.682,64.168   M153.627,64.155c-1.553,0.463-1.801,2.755-0.434,3.604c1.391,0.603,2.967,0.564,4.437,0.904c1.106,0.158,2.407,0.635,3.386-0.168  c1.045-0.815,0.926-2.631-0.277-3.248c-1.129-0.555-2.438-0.521-3.66-0.781C155.937,64.324,154.779,63.909,153.627,64.155   M102.743,67.777c-1.448,0.569-2.952,0.979-4.423,1.487c-0.783,0.237-1.398,0.967-1.475,1.791c0.026,0.821,0.462,1.709,1.286,1.985  c0.987,0.396,2.005-0.195,2.942-0.466c1.285-0.51,2.794-0.752,3.756-1.832c0.609-0.579,0.175-1.438-0.174-2.024  C104.289,68.068,103.525,67.379,102.743,67.777 M167.38,70.949c1.364,1.167,3.239,1.45,4.886,2.062  c0.986,0.427,2.277,0.039,2.682-1.008c0.498-1.051-0.088-2.369-1.191-2.709c-1.711-0.596-3.465-1.069-5.131-1.775  C167.517,68.147,166.134,69.809,167.38,70.949 M131,70.088c-10.138,0.514-20.254,2.201-29.936,5.274  c-1.479,0.246-2.611,2.106-1.729,3.438c0.465,0.733,1.446,0.514,2.141,0.316c9.801-2.908,20.021-3.984,30.193-4.545  c2.818-0.246,5.654-0.229,8.479-0.017c10.254,0.579,20.582,1.61,30.449,4.606c0.688,0.25,1.635,0.271,2.086-0.412  c0.506-0.961,0.17-2.259-0.69-2.908c-1.011-0.694-2.213-1.039-3.367-1.45c-6.162-1.95-12.604-2.813-19.008-3.517  C143.429,70.284,137.209,69.86,131,70.088"/>
<polygon fill="#FFFFFF" points="45.467,141.155 39.065,143.92 40.281,146.73 45.309,144.558 46.424,147.137 41.393,149.305   42.686,152.295 49.084,149.53 50.257,152.239 40.659,156.389 34.74,142.695 44.336,138.547 "/>
<path fill="#FFFFFF" d="M55.955,133.523l5.915,13.693l-2.681,1.16l-9.257-6.977c0.108,0.234,0.181,0.387,0.216,0.456  c0.13,0.222,0.231,0.411,0.301,0.569l3.537,8.201l-2.449,1.06l-5.919-13.692l3.396-1.471l8.061,6.1  c-0.212-0.381-0.36-0.678-0.451-0.883l-3.094-7.165L55.955,133.523z"/>
<path fill="#FFFFFF" d="M71.265,134.467l3.167,7.322l-1.438,0.623c-0.331-0.473-0.702-0.929-1.131-1.38  c-0.44,1.601-1.403,2.729-2.892,3.363c-1.747,0.761-3.394,0.71-4.915-0.147c-1.527-0.854-2.729-2.295-3.604-4.32  c-0.944-2.18-1.184-4.159-0.715-5.928c0.47-1.775,1.594-3.05,3.381-3.817c1.495-0.65,2.89-0.744,4.181-0.282  c1.284,0.459,2.341,1.355,3.159,2.689l-2.819,1.697c-0.963-1.553-2.088-2.051-3.39-1.486c-0.854,0.369-1.328,1.039-1.428,2.012  c-0.094,0.973,0.17,2.189,0.802,3.648c0.608,1.404,1.31,2.373,2.102,2.916c0.794,0.539,1.626,0.617,2.501,0.239  c0.562-0.241,0.984-0.649,1.264-1.218c0.285-0.561,0.246-1.255-0.106-2.078l-2.531,1.094l-1.104-2.56L71.265,134.467z"/>
<rect x="67.459" y="131.743" transform="matrix(0.3968 0.9179 -0.9179 0.3968 167.687 11.7322)" fill="#FFFFFF" width="14.916" height="3.424"/>
<path fill="#FFFFFF" d="M85.957,120.56l5.915,13.692l-2.683,1.156l-9.256-6.974c0.105,0.235,0.181,0.384,0.219,0.455  c0.127,0.223,0.229,0.411,0.297,0.571l3.541,8.201l-2.455,1.053l-5.915-13.69l3.396-1.466l8.058,6.1  c-0.213-0.38-0.364-0.677-0.453-0.882l-3.095-7.165L85.957,120.56z"/>
<polygon fill="#FFFFFF" points="98.771,118.115 92.37,120.879 93.589,123.69 98.615,121.515 99.728,124.094 94.701,126.266   95.996,129.252 102.391,126.491 103.563,129.199 93.966,133.344 88.048,119.656 97.646,115.51 "/>
<polygon fill="#FFFFFF" points="109.659,113.408 103.261,116.172 104.475,118.982 109.502,116.81 110.615,119.39 105.589,121.558   106.884,124.547 113.279,121.784 114.451,124.49 104.854,128.641 98.934,114.948 108.534,110.801 "/>
<path fill="#FFFFFF" d="M116.559,117.139l2.342,5.426l-3.168,1.373l-5.918-13.693l5.91-2.55c1.086-0.473,2.014-0.72,2.782-0.748  c0.771-0.028,1.523,0.209,2.258,0.709c0.726,0.498,1.275,1.173,1.64,2.015c0.708,1.643,0.442,3.158-0.805,4.547l5.099,4.979  l-3.479,1.51l-4.406-4.539L116.559,117.139z M114.039,111.313l1.509,3.492l1.931-0.833c0.629-0.272,1.067-0.52,1.314-0.732  c0.24-0.213,0.41-0.521,0.498-0.927c0.093-0.408,0.051-0.813-0.125-1.218c-0.166-0.381-0.424-0.674-0.773-0.879  c-0.355-0.199-0.682-0.282-0.973-0.238c-0.291,0.046-0.803,0.219-1.521,0.531L114.039,111.313z"/>
<rect x="120.013" y="109.156" transform="matrix(0.2725 0.9622 -0.9622 0.2725 199.4153 -41.9887)" fill="#FFFFFF" width="14.918" height="3.422"/>
<path fill="#FFFFFF" d="M143.406,101.918l0.088,14.916l-2.92,0.012l-5.79-10.035c0.008,0.254,0.017,0.419,0.025,0.502  c0.026,0.254,0.045,0.467,0.045,0.645l0.053,8.928l-2.668,0.016l-0.094-14.912l3.697-0.025l5.032,8.768  c-0.047-0.436-0.068-0.77-0.068-0.996l-0.05-7.801L143.406,101.918z"/>
<path fill="#FFFFFF" d="M157.8,114.39l-3.239,7.286l-1.438-0.635c0.127-0.561,0.205-1.151,0.254-1.768  c-1.484,0.76-2.959,0.809-4.438,0.152c-1.748-0.776-2.813-2.02-3.222-3.725c-0.403-1.701-0.155-3.56,0.736-5.578  c0.973-2.168,2.269-3.681,3.892-4.539c1.618-0.854,3.312-0.886,5.092-0.094c1.494,0.662,2.507,1.623,3.033,2.885  c0.536,1.254,0.594,2.641,0.161,4.147l-3.153-0.929c0.496-1.754,0.088-2.924-1.203-3.5c-0.849-0.383-1.663-0.275-2.448,0.312  c-0.778,0.593-1.487,1.611-2.14,3.062c-0.618,1.396-0.866,2.572-0.722,3.521c0.142,0.944,0.642,1.615,1.515,1.999  c0.558,0.25,1.146,0.29,1.755,0.112c0.604-0.177,1.088-0.673,1.456-1.491l-2.521-1.122l1.138-2.547L157.8,114.39z"/>
<path fill="#FFFFFF" d="M174.81,117.961l-3.07-0.279c0.117-1.237-0.396-2.115-1.551-2.629c-1.244-0.553-2.045-0.42-2.408,0.4  c-0.146,0.321-0.152,0.65-0.023,0.979c0.13,0.333,0.564,0.76,1.31,1.29c1.233,0.888,2.111,1.615,2.617,2.187  c0.506,0.565,0.834,1.267,0.978,2.095c0.162,0.83,0.059,1.629-0.297,2.418c-0.546,1.233-1.488,2.088-2.813,2.574  c-1.323,0.479-2.909,0.315-4.733-0.498c-1.371-0.605-2.402-1.445-3.074-2.511c-0.682-1.063-0.889-2.291-0.641-3.681l3.191,0.626  c-0.232,1.416,0.391,2.455,1.869,3.116c0.715,0.322,1.315,0.416,1.797,0.293c0.475-0.129,0.805-0.387,0.975-0.782  c0.186-0.394,0.157-0.78-0.059-1.142c-0.226-0.36-0.75-0.842-1.575-1.441c-1.54-1.117-2.53-2.148-2.981-3.094  c-0.453-0.944-0.408-2.016,0.129-3.211c0.537-1.213,1.428-2.041,2.664-2.483c1.236-0.449,2.588-0.342,4.07,0.319  C173.796,113.672,175.009,115.492,174.81,117.961"/>
<path fill="#FFFFFF" d="M176.802,131.844c-1.802-0.801-2.886-2.109-3.254-3.928c-0.373-1.818-0.121-3.705,0.748-5.66  c0.892-1.987,2.136-3.426,3.724-4.312c1.586-0.885,3.305-0.917,5.16-0.094c1.857,0.832,2.95,2.168,3.271,4.013  c0.313,1.845,0.063,3.683-0.754,5.513c-0.88,1.972-2.111,3.426-3.697,4.348C180.416,132.642,178.685,132.684,176.802,131.844   M181.991,120.444c-1.639-0.731-3.115,0.373-4.43,3.315c-1.311,2.945-1.146,4.785,0.496,5.518c1.588,0.712,3.041-0.408,4.35-3.35  C183.724,122.984,183.584,121.154,181.991,120.444"/>
<path fill="#FFFFFF" d="M198.698,131.1l-3.373-1.253c0.814-1.942,0.504-3.234-0.918-3.87c-1.635-0.727-3.113,0.387-4.438,3.347  c-0.758,1.71-1.054,2.972-0.883,3.775c0.179,0.81,0.661,1.39,1.465,1.747c1.291,0.574,2.466,0.07,3.519-1.521l2.949,1.544  c-0.92,1.541-2.066,2.518-3.447,2.922c-1.369,0.406-2.773,0.282-4.215-0.357c-1.773-0.79-2.939-2.055-3.49-3.787  c-0.547-1.744-0.338-3.707,0.646-5.9c0.918-2.057,2.192-3.502,3.854-4.338c1.654-0.83,3.412-0.834,5.268-0.009  C198.843,124.836,199.866,127.398,198.698,131.1"/>
<polygon fill="#FFFFFF" points="205.282,127.955 199.207,141.576 196.078,140.185 202.157,126.562 "/>
<polygon fill="#FFFFFF" points="215.761,135.733 209.398,132.899 208.148,135.693 213.154,137.924 212.005,140.487 207.007,138.256   205.675,141.229 212.048,144.068 210.845,146.764 201.295,142.508 207.368,128.885 216.914,133.138 "/>
<polygon fill="#FFFFFF" points="226.664,137.484 225.464,140.178 222.156,138.705 217.284,149.633 214.109,148.219 218.982,137.293   215.656,135.808 216.851,133.113 "/>
<polygon fill="#FFFFFF" points="237.978,142.526 230.267,148.537 227.707,154.275 224.577,152.883 227.134,147.145 226.447,137.389   230.08,139.006 230.334,145.299 235.166,141.274 "/>
<path fill="#FFFFFF" d="M55.656,325.062c-0.723,0.793-1.602,1.138-2.632,1.029c-0.922-0.104-1.792-0.531-2.608-1.274  c-0.523-0.486-0.938-1.108-1.232-1.857l1.514-1.646c-0.047,0.585-0.028,1.047,0.055,1.384c0.109,0.449,0.346,0.842,0.709,1.17  c0.399,0.37,0.854,0.563,1.361,0.582c0.536,0.027,0.983-0.154,1.345-0.541c0.371-0.41,0.479-1.068,0.322-1.983l-0.472-2.521  c-0.08-1.002,0.167-1.812,0.732-2.436c0.669-0.729,1.471-1.062,2.407-0.99c0.867,0.061,1.672,0.428,2.415,1.11  c0.503,0.458,0.907,1.025,1.22,1.69l-1.396,1.523c-0.061-0.613-0.113-1.021-0.173-1.226c-0.111-0.376-0.339-0.722-0.676-1.028  c-0.345-0.316-0.724-0.479-1.135-0.479c-0.433-0.016-0.8,0.15-1.107,0.487c-0.358,0.391-0.451,1.034-0.291,1.943l0.456,2.546  C56.531,323.564,56.259,324.408,55.656,325.062"/>
<path fill="#FFFFFF" d="M66.815,335.536l-1.32,1.399c-1.385-0.431-2.48-0.991-3.296-1.688c-1.285-1.104-1.983-2.41-2.095-3.916  c-0.113-1.504,0.382-2.896,1.481-4.177c1.183-1.375,2.581-2.116,4.202-2.23c1.619-0.112,3.121,0.416,4.488,1.595  c0.702,0.603,1.346,1.365,1.937,2.285l-1.282,1.496c-0.404-1.256-0.979-2.211-1.729-2.861c-0.973-0.829-2.033-1.146-3.183-0.947  c-1.072,0.18-2.034,0.764-2.889,1.762c-0.835,0.969-1.273,1.979-1.314,3.031c-0.053,1.146,0.395,2.125,1.342,2.938  C64.016,334.962,65.235,335.399,66.815,335.536"/>
<path fill="#FFFFFF" d="M70.67,343.376l-1.65-1.945c0.938-0.456,1.775-1.004,2.508-1.62l3.932-3.354  c0.984-0.838,1.77-1.676,2.336-2.507l1.663,1.947c-0.918,0.427-1.869,1.058-2.854,1.905l-3.867,3.292  C71.957,341.751,71.272,342.512,70.67,343.376"/>
<path fill="#FFFFFF" d="M88.891,348.692l-1.854,0.602c-0.12-0.62-0.276-1.132-0.457-1.52c-0.146-0.308-0.425-0.759-0.835-1.353  l-5.252,3.707c-1.367,0.968-2.34,1.813-2.914,2.539l-1.475-2.092c0.805-0.238,1.944-0.881,3.426-1.927l5.199-3.669  c-0.529-0.657-0.933-1.128-1.207-1.43c-0.467-0.496-0.938-0.9-1.4-1.229l1.881-0.562L88.891,348.692z"/>
<path fill="#FFFFFF" d="M88.785,364.602l-2.401,0.549l-3.575-4.957c0.855-0.285,1.975-0.932,3.354-1.928l3.276-2.361  c1.026-0.737,1.935-1.562,2.726-2.462l3.72,5.148l-2.029,0.371c-0.129-0.871-0.446-1.663-0.956-2.369  c-0.065-0.088-0.235-0.31-0.506-0.647l-3.019,2.18l2.212,3.07l-2.135,0.216c-0.137-0.779-0.502-1.632-1.102-2.543l-3.25,2.343  c0.883,1.062,1.44,1.7,1.667,1.923C87.361,363.732,88.035,364.225,88.785,364.602"/>
<path fill="#FFFFFF" d="M133.06,392.466l-1.254,2.115l-6.062-0.813c0.381-0.822,0.688-2.068,0.912-3.771l0.543-3.991  c0.172-1.259,0.206-2.48,0.099-3.679l6.291,0.854l-1.126,1.725c-0.724-0.504-1.518-0.814-2.38-0.936  c-0.104-0.018-0.378-0.044-0.813-0.087l-0.496,3.691l3.746,0.518l-1.312,1.691c-0.662-0.44-1.525-0.76-2.607-0.952l-0.535,3.97  c1.378,0.092,2.225,0.128,2.543,0.11C131.452,392.903,132.273,392.753,133.06,392.466"/>
<path fill="#FFFFFF" d="M147.398,382.39l-0.381,1.908c-0.609-0.199-1.127-0.316-1.561-0.351c-0.33-0.025-0.864-0.008-1.58,0.06  l0.632,6.396c0.157,1.67,0.421,2.935,0.767,3.788l-2.543,0.261c0.188-0.829,0.19-2.144,0.016-3.938l-0.625-6.329  c-0.828,0.133-1.438,0.245-1.84,0.344c-0.664,0.157-1.246,0.356-1.756,0.608l0.438-1.916L147.398,382.39z"/>
<path fill="#FFFFFF" d="M182.939,367.457c0.832,0.671,1.24,1.524,1.203,2.56c-0.041,0.926-0.414,1.823-1.105,2.688  c-0.44,0.559-1.037,1.013-1.77,1.355l-1.74-1.4c0.582,0.008,1.035-0.043,1.373-0.146c0.438-0.143,0.817-0.398,1.123-0.789  c0.338-0.423,0.5-0.887,0.49-1.396c-0.012-0.54-0.227-0.979-0.637-1.306c-0.434-0.342-1.096-0.41-1.997-0.19l-2.485,0.646  c-0.99,0.141-1.824-0.049-2.472-0.579c-0.776-0.614-1.159-1.392-1.151-2.335c0-0.865,0.315-1.692,0.951-2.482  c0.42-0.527,0.952-0.973,1.604-1.326l1.607,1.293c-0.604,0.096-1.006,0.181-1.205,0.249c-0.369,0.142-0.699,0.388-0.979,0.742  c-0.297,0.366-0.433,0.758-0.416,1.163c0.024,0.433,0.216,0.789,0.574,1.076c0.401,0.326,1.058,0.379,1.959,0.155l2.502-0.622  C181.388,366.684,182.246,366.898,182.939,367.457"/>
<path fill="#FFFFFF" d="M184.47,350.328l1.24,1.491c-0.54,0.353-0.954,0.677-1.247,0.99c-0.235,0.249-0.556,0.671-0.95,1.271  l5.368,3.534c1.399,0.918,2.543,1.519,3.431,1.785l-1.406,2.139c-0.521-0.666-1.541-1.497-3.051-2.488l-5.312-3.5  c-0.418,0.729-0.715,1.279-0.891,1.646c-0.289,0.619-0.509,1.203-0.628,1.754l-1.215-1.545L184.47,350.328z"/>
<path fill="#FFFFFF" d="M202.154,344.666l-1.182,1.715c-1.8,0.426-4.074,0.646-6.834,0.661l1.32,0.915  c1.076,0.743,2.146,1.324,3.229,1.741l-1.461,2.103c-0.539-0.688-1.406-1.447-2.604-2.273l-3.984-2.765  c-0.812-0.56-1.771-1.066-2.906-1.528l0.723-1.042c0.926-1.332,1.744-2.229,2.467-2.704c1.119-0.737,2.259-0.71,3.394,0.077  c1.091,0.757,1.479,1.936,1.146,3.538C197.525,345.195,199.752,345.05,202.154,344.666 M193.322,343.162  c-1.141-0.79-2.289-0.479-3.434,0.938l3.832,2.65c0.367-0.688,0.553-1.319,0.536-1.907  C194.232,344.142,193.923,343.582,193.322,343.162"/>
<path fill="#FFFFFF" d="M208.632,334.118l0.995,2.255l-4.191,4.446c-0.449-0.781-1.289-1.766-2.529-2.934l-2.934-2.771  c-0.921-0.871-1.896-1.605-2.932-2.218l4.359-4.617l0.739,1.921c-0.832,0.289-1.546,0.754-2.142,1.388  c-0.076,0.077-0.262,0.284-0.555,0.614l2.715,2.561l2.605-2.75l0.614,2.055c-0.742,0.278-1.511,0.797-2.302,1.559l2.912,2.757  c0.875-1.067,1.405-1.739,1.576-1.999C208.052,335.679,208.412,334.931,208.632,334.118"/>
<path fill="#FFFFFF" d="M221.81,325.011l-1.688,1.538c-0.479-0.218-1.305-0.439-2.484-0.681l-6.996-1.396l2.854,3.138  c1.028,1.125,1.942,1.941,2.772,2.448l-1.752,1.594c-0.494-0.934-1.226-1.921-2.188-2.979l-4.18-4.591l-2.154-0.282l1.996-1.813  c0.588,0.199,1.414,0.399,2.477,0.626l8.031,1.687l-3.299-3.628c-1.062-1.162-2.029-2.029-2.91-2.592l1.75-1.598  c0.594,1.049,1.371,2.102,2.346,3.159l2.921,3.199C220.17,323.784,220.998,324.511,221.81,325.011"/>
<path fill="#FFFFFF" d="M234.118,313.978l-1.475,1.335l-0.811-0.891c-0.164,0.838-0.359,1.479-0.582,1.927  c-0.258,0.536-0.668,1.062-1.241,1.579c-1.114,1.013-2.321,1.234-3.627,0.674c-0.914-0.39-1.97-1.242-3.157-2.56  c-0.223-0.237-0.507-0.568-0.879-0.994c-0.359-0.429-0.623-0.719-0.771-0.885c-0.74-0.82-1.565-1.541-2.479-2.156l1.896-1.715  c0.453,0.906,1.08,1.795,1.875,2.673l1.901,2.1c1.894,2.095,3.537,2.511,4.939,1.243c1.321-1.19,1.223-2.631-0.302-4.312  l-2.477-2.729c-0.736-0.814-1.559-1.527-2.459-2.13l1.893-1.722c0.381,0.816,0.961,1.654,1.746,2.524l2.594,2.859  c0.912,1.012,1.441,1.585,1.58,1.723C232.933,313.169,233.541,313.652,234.118,313.978"/>
<path fill="#FFFFFF" d="M242.695,302.446l0.934,2.279l-4.317,4.331c-0.424-0.801-1.233-1.808-2.44-3.005l-2.854-2.85  c-0.9-0.895-1.859-1.658-2.869-2.293l4.477-4.503l0.699,1.942c-0.84,0.271-1.562,0.713-2.184,1.325  c-0.08,0.08-0.266,0.277-0.562,0.603l2.635,2.635l2.678-2.682l0.559,2.071c-0.75,0.255-1.529,0.757-2.338,1.502l2.84,2.828  c0.9-1.049,1.441-1.7,1.625-1.957C242.07,303.99,242.447,303.248,242.695,302.446"/>
</svg>