<?xml version="1.0" encoding="UTF-8"?>
<!-- Generator: Adobe Illustrator 16.0.0, SVG Export Plug-In . SVG Version: 6.00 Build 0)  -->
<!DOCTYPE svg PUBLIC "-//W3C//DTD SVG 1.1//EN" "http://www.w3.org/Graphics/SVG/1.1/DTD/svg11.dtd">
<svg version="1.1" id="Layer_1" xmlns="http://www.w3.org/2000/svg" xmlns:xlink="http://www.w3.org/1999/xlink" x="0px" y="0px" width="600px" height="240px" viewBox="0 0 600 240" enable-background="new 0 0 600 240" xml:space="preserve">
<g>
	<path fill-rule="evenodd" clip-rule="evenodd" fill="#FFFFFF" d="M338.876,235.195h-76.752V208.7l5.112-0.144l0.432-0.072h0.504   h0.432h0.432l0.504-0.072h0.504l0.504-0.072h0.504l0.504-0.071h0.504l0.504-0.073l0.504-0.071h0.504l0.504-0.072l0.576-0.071   l0.504-0.072l0.504-0.072l0.504-0.071l0.504-0.073l0.576-0.071l0.504-0.072l0.504-0.071l0.432-0.072l0.504-0.145l0.504-0.072   l0.432-0.144l0.504-0.071l0.432-0.072l0.432-0.145l0.432-0.145l0.288-0.071l0,0l0,0l0.144-0.072l0.216-0.144l0.216-0.144   l0.216-0.217l0.216-0.216l0.288-0.288l0.216-0.288l0.216-0.36l0.144-0.288l0.144-0.359l0.144-0.288l0.072-0.36l0.072-0.359v-0.432   V37.916H224.54l-1.296,0.072h-1.152l-1.08,0.144l-1.008,0.072l-0.864,0.144l-0.792,0.144l-0.648,0.216l-0.648,0.216l-0.504,0.144   l-0.504,0.216l-0.36,0.216l-0.36,0.216l-0.288,0.144l-0.216,0.216l-0.144,0.144l-0.216,0.216l-0.072,0.144l-0.144,0.144   l-0.072,0.216l-0.144,0.144l-0.072,0.216l-0.072,0.216l-0.072,0.216v0.216l-0.072,0.216l-0.072,0.288v0.288v0.288l-0.072,0.288   v0.288v0.288v5.184h-44.28V5.804h262.368v43.272h-44.28v-5.184v-0.288v-0.288l-0.071-0.288V42.74v-0.288l-0.072-0.288l-0.071-0.216   v-0.216l-0.072-0.216l-0.072-0.216l-0.071-0.216l-0.145-0.144l-0.072-0.216l-0.145-0.144l-0.071-0.144l-0.216-0.216l-0.145-0.144   l-0.216-0.216l-0.288-0.144l-0.36-0.216l-0.359-0.216l-0.504-0.216l-0.504-0.144l-0.648-0.216l-0.647-0.216l-0.792-0.144   l-0.864-0.144l-1.008-0.072l-1.08-0.144h-1.152l-1.296-0.072h-59.976v164.809v0.432l0.072,0.359l0.071,0.36l0.145,0.288   l0.144,0.359l0.145,0.288l0.215,0.36l0.217,0.288l0.287,0.288l0.217,0.216l0.216,0.217l0.216,0.144l0.216,0.144l0.145,0.072l0,0   l0,0l0.288,0.071l0.432,0.145l0.432,0.145l0.433,0.072l0.504,0.071l0.433,0.144l0.504,0.072l0.503,0.145l0.433,0.072l0.504,0.071   l0.504,0.072l0.576,0.071l0.504,0.073l0.504,0.071l0.504,0.072l0.504,0.072l0.576,0.071l0.504,0.072h0.504l0.504,0.071l0.504,0.073   h0.504l0.505,0.071h0.504l0.504,0.072h0.504l0.504,0.072h0.433h0.432h0.504l0.433,0.072l5.111,0.144V235.195z M334.052,213.38   c-4.68-0.145-11.663-0.72-16.776-2.232c-1.799-0.575-5.615-3.671-5.615-8.352V33.092h64.872c15.407,0,15.696,7.344,15.696,11.16   h34.632V10.628H300.5H174.14v33.624h34.632c0-3.816,0.288-11.16,15.696-11.16h64.872v169.704c0,4.681-3.816,7.776-5.616,8.352   c-5.112,1.513-12.096,2.088-16.776,2.232v16.992h67.104V213.38z"/>
	<g>
		<path fill-rule="evenodd" clip-rule="evenodd" fill="#FFFFFF" d="M535.58,79.1c-2.664-0.792-8.208-2.16-16.561-4.032    c-5.831-1.224-12.312-2.016-19.439-2.304l-6.265-0.288v41.4c2.449-0.216,4.824-0.432,7.128-0.504    c2.305-0.144,4.681-0.216,7.057-0.288c2.376-0.072,4.607-0.144,6.768-0.216c1.872-0.072,4.464-0.144,7.776-0.144    c4.68,0,11.088,0.288,19.296,0.792l-12.96,16.848c-5.832-2.017-11.88-3.528-18.216-4.536c-3.24-0.576-6.048-0.936-8.28-1.152    c-2.231-0.216-5.111-0.359-8.568-0.359v43.703h6.841c3.6,0,6.408-0.144,8.496-0.432c2.16-0.216,6.336-0.72,12.672-1.584    c5.399-0.72,9.648-1.296,12.744-1.872c3.167-0.575,6.695-1.44,10.655-2.447c3.96-1.081,7.561-2.017,10.872-2.953l-11.52,21.241    h-78.408c0.145,0,0.864-1.153,2.16-3.385c0.863-1.872,1.367-3.816,1.656-5.977c0.288-2.159,0.432-3.887,0.432-5.039V74.708    c0-0.504,0-1.296-0.072-2.448c-0.071-1.224-0.216-2.52-0.432-3.888c-0.144-1.44-0.504-2.736-1.009-4.032    c-0.359-0.792-0.863-1.584-1.439-2.304c-0.504-0.72-1.008-1.296-1.296-1.728h81.576L535.58,79.1L535.58,79.1z M400.364,166.796    c7.2,0,15.552-0.864,24.264-2.448c9.216-1.583,26.641-4.824,34.561-7.416l-9,23.041h-82.152c0.36-0.505,0.72-1.08,1.152-1.873    c0.432-0.864,0.863-1.728,1.151-2.592c0.648-1.512,1.08-3.312,1.296-5.327c0.288-2.017,0.504-3.528,0.504-4.608V74.708    c0-1.152-0.071-2.88-0.287-5.112c-0.217-2.16-0.792-4.176-1.657-5.976c-0.431-0.792-0.863-1.44-1.223-1.944    c-0.361-0.504-0.648-0.936-0.937-1.368h30.743c-0.215,0-0.791,1.008-1.871,2.952c-0.864,1.944-1.44,4.032-1.729,6.264    c-0.287,2.232-0.432,4.032-0.504,5.184v92.088H400.364L400.364,166.796z M299.996,167.228c-4.752-0.071-9.936-1.367-14.472-3.815    s-8.352-6.265-11.304-11.305c-3.024-5.111-4.536-11.231-4.536-18.504V74.708c0.072-1.152,0.36-2.808,0.648-4.968    c0.36-2.088,0.864-4.104,1.44-5.976c1.008-2.304,1.584-3.456,1.728-3.456h-28.728c0.288,0.576,0.576,1.224,0.936,2.088    c0.432,0.864,0.864,1.872,1.224,3.096c0.504,1.44,0.936,3.096,1.152,4.968c0.36,1.872,0.504,3.312,0.576,4.248v53.353    c0,10.439,1.584,17.135,4.752,25.271c3.168,8.208,7.992,14.832,14.328,20.016c6.408,5.185,14.04,7.344,22.896,7.848    c6.336,0.361,12.6,0.289,18.937-0.071c8.855-0.504,16.488-2.592,22.896-7.776c6.337-5.184,11.089-11.808,14.256-20.016    c3.24-8.137,4.824-13.968,4.824-25.271V74.708c0.072-0.936,0.217-2.376,0.504-4.248c0.288-1.872,0.648-3.528,1.224-4.968    c0.36-1.224,0.793-2.232,1.152-3.096c0.433-0.864,0.72-1.512,0.937-2.088h-28.729c0.217,0,0.792,1.152,1.729,3.456    c0.647,1.872,1.151,3.888,1.512,5.976c0.288,2.16,0.504,3.816,0.647,4.968v58.896c0,7.272-1.512,13.393-4.535,18.504    c-3.024,5.04-6.769,8.856-11.305,11.305C310.076,165.86,304.748,167.156,299.996,167.228L299.996,167.228z M231.452,63.116    c-2.52,1.584-4.968,3.528-7.416,5.904c-2.448,2.376-4.32,4.248-5.544,5.544l-36.216,40.248l42.84,50.76    c1.008,1.08,2.52,2.663,4.536,4.752c2.016,2.016,4.032,3.888,5.976,5.615c0.432,0.36,1.08,0.937,2.088,1.801    c1.008,0.863,1.656,1.367,1.872,1.584c0.36,0.216,0.576,0.432,0.792,0.648h-28.656c-0.072,0-0.936-1.584-2.448-4.608    c-1.008-1.656-2.16-3.456-3.528-5.4s-2.448-3.456-3.24-4.392l-40.392-48.168v48.168c0.144,1.08,0.36,2.663,0.648,4.608    c0.288,2.015,0.792,4.031,1.368,6.191c0.144,0.288,0.36,0.792,0.648,1.512c0.36,0.648,0.576,1.152,0.648,1.44    c0.144,0.287,0.216,0.504,0.36,0.648h-27.072c0.072,0,0.504-1.08,1.368-3.241c0.432-1.079,0.864-2.447,1.152-4.175    c0.36-1.656,0.648-3.097,0.792-4.393c0.144-1.225,0.288-2.088,0.36-2.592V74.708c0-1.08-0.144-2.664-0.288-4.68    c-0.144-2.088-0.504-3.888-1.224-5.544c-0.216-0.648-0.576-1.44-1.008-2.304c-0.504-0.792-0.864-1.44-1.152-1.872h27.072    c-0.144,0.216-0.216,0.432-0.36,0.648c-0.144,0.216-0.36,0.72-0.72,1.368c-0.36,0.72-0.576,1.152-0.72,1.44    c-0.648,1.728-1.152,3.672-1.368,5.904c-0.288,2.232-0.432,3.888-0.504,5.04v40.104l33.48-40.104    c0.936-1.08,2.088-2.736,3.6-4.824c1.44-2.16,2.448-4.32,3.024-6.408c0.072-0.216,0.144-0.648,0.288-1.44s0.288-1.296,0.36-1.728    h33.264C235.772,60.308,234.26,61.244,231.452,63.116L231.452,63.116z M119.78,64.844V85.58l-5.256-3.456    c-4.032-2.664-7.56-4.536-10.728-5.76c-3.096-1.152-7.704-1.728-13.824-1.728c-5.832,0.144-10.8,1.8-15.12,5.04    c-4.248,3.24-6.408,7.128-6.408,11.52c0,2.592,0.576,4.896,1.656,6.984c1.152,2.016,2.592,3.744,4.464,5.184    c1.872,1.512,4.104,2.952,6.696,4.392c2.664,1.512,5.544,3.024,8.712,4.68c8.712,4.608,14.4,7.56,17.208,9    c2.736,1.44,5.832,3.457,9.288,6.049c3.456,2.52,6.264,5.615,8.424,9.072c2.16,3.527,3.24,7.487,3.24,11.879    c-0.576,5.977-3.096,11.448-7.416,16.417c-4.392,4.896-10.152,8.783-17.28,11.591c-7.128,2.881-14.904,4.248-23.328,4.248    c-5.688-0.144-10.944-0.504-15.696-1.08c-4.824-0.647-9.072-1.584-12.816-2.88v-24.047l7.561,5.976    c3.6,2.951,6.984,5.111,10.08,6.479c3.096,1.368,6.912,2.017,11.231,2.088c6.12,0,11.376-1.584,15.552-4.823    c4.248-3.24,6.408-7.416,6.408-12.673c-0.432-2.879-1.512-5.399-3.096-7.56c-1.584-2.088-3.6-3.888-6.048-5.4    c-2.376-1.512-5.904-3.383-10.44-5.544c-4.608-2.231-7.056-3.456-7.488-3.671c-2.808-1.513-6.336-3.529-10.584-5.904    c-4.176-2.304-7.56-4.608-10.08-6.769c-2.52-2.088-4.536-4.608-6.192-7.56c-1.584-2.952-2.592-6.552-3.096-10.872    c0-4.68,1.224-9.288,3.6-13.752c2.376-4.464,5.688-8.424,10.008-11.88c4.32-3.528,9.288-6.264,14.76-8.208    c5.544-2.016,11.304-3.024,17.352-3.024C103.076,59.732,112.652,61.532,119.78,64.844z"/>
		<g>
			<path fill="#FFFFFF" d="M554.543,53.432h11.328v2.978h-3.801v9.082h-3.727V56.41h-3.801V53.432z"/>
			<path fill="#FFFFFF" d="M567.517,53.432h4.9l1.891,7.338l1.876-7.338h4.898v12.06h-3.053v-9.197l-2.352,9.197h-2.763     l-2.347-9.197v9.197h-3.052V53.432z"/>
		</g>
	</g>
	<g>
		<path fill-rule="evenodd" clip-rule="evenodd" fill="#FFFFFF" stroke="#FFFFFF" stroke-width="2" d="M321.92,65.102    c-3.456,3.384-6.264,8.424-10.296,9.504c-2.952,0.792-4.392-2.592-5.76-5.616c-0.647,2.592-3.744,9.864-6.912,10.224    c-4.176,0.432-6.192-5.184-8.352-7.992c-0.576,4.464-1.296,25.2-7.2,27c-8.424,2.52-7.416-17.856-7.488-17.568    c-0.072,0.36-3.528,2.016-6.408,0.504c-5.04-2.592-8.136-11.808-9.72-14.472c-1.296,6.552-1.296,13.392-2.448,15.408    c-1.224,2.16-4.68,0.792-6.552,0.792c1.728,5.904,3.6,12.6,1.368,15.408c-2.304,2.88-4.392,3.312-7.848,2.952    c5.472,2.952,14.544,20.017,14.04,23.903c-0.504,3.889-12.312,5.113-16.704,5.328c4.68,2.521,8.352,4.465,12.744,6.984    s8.208,6.408,11.88,7.849c3.672,1.512,7.92,1.728,10.152,2.663c-0.864,4.32-3.168,9.793-5.256,12.961s-4.824,8.207-8.64,8.783    l2.088,6.192c3.24,0.216,3.816-3.528,4.464-5.472c0.648-1.944,9.648-16.92,12.024-21.169c0,0,6.336,6.696,9.288,8.353    c3.024,1.729,8.784,2.736,13.175,4.824c4.393,2.016,6.769,3.672,10.873,5.615c-2.305-4.031-7.272-11.088-6.049-14.328    c1.225-3.312,7.2-4.319,13.176-4.464c6.049-0.216,13.896,0.792,17.353,0.864c-2.232-3.239-4.68-4.607-4.248-8.136    c0.359-3.528,13.248-7.128,13.248-7.128s-3.096-2.952-1.872-5.904c1.152-2.951,7.416-7.488,11.808-10.656    c-3.672,0.288-12.888,1.296-17.279-0.36c-4.393-1.584-4.536-5.832-4.464-5.832c0.071,0-16.272,12.456-18.217,4.392    c-1.583-6.408,13.537-18,16.992-21.168c-4.608-0.432-11.592,0.576-11.663-2.88c-0.145-5.04,5.256-11.736,5.256-11.736    s-6.625,0.792-7.633-1.44C319.184,75.614,320.84,70.214,321.92,65.102z"/>
		<path fill-rule="evenodd" clip-rule="evenodd" fill="#E95131" d="M320.84,79.286c1.008,2.232,7.633,1.44,7.633,1.44    s-5.4,6.696-5.256,11.736c0.071,3.456,7.055,2.448,11.663,2.88c-3.455,3.168-18.575,14.76-16.992,21.168    c1.944,8.064,18.288-4.392,18.217-4.392c-0.072,0,0.071,4.248,4.464,5.832c4.392,1.656,13.607,0.648,17.279,0.36    c-4.392,3.167-10.655,7.705-11.808,10.656c-1.224,2.952,1.872,5.904,1.872,5.904s-12.889,3.6-13.248,7.128    c-0.432,3.528,2.016,4.896,4.248,8.136c-3.456-0.072-11.304-1.08-17.353-0.864c-5.976,0.145-11.951,1.152-13.176,4.464    c-1.224,3.24,3.744,10.297,6.049,14.328c-4.104-1.943-6.48-3.6-10.873-5.615c-4.392-2.088-10.151-3.096-13.175-4.824    c-2.952-1.656-9.288-8.353-9.288-8.353c-2.376,4.249-11.376,19.225-12.024,21.169c-0.648,1.943-1.224,5.688-4.464,5.472    l-2.088-6.192c3.816-0.576,6.552-5.615,8.64-8.783s4.392-8.641,5.256-12.961c-2.232-0.936-6.48-1.151-10.152-2.663    c-3.672-1.44-7.488-5.329-11.88-7.849s-8.064-4.464-12.744-6.984c4.392-0.215,16.2-1.439,16.704-5.328    c0.504-3.887-8.568-20.951-14.04-23.903c3.456,0.36,5.544-0.072,7.848-2.952c2.232-2.808,0.36-9.504-1.368-15.408    c1.872,0,5.328,1.368,6.552-0.792c1.152-2.016,1.152-8.856,2.448-15.408c1.584,2.664,4.68,11.88,9.72,14.472    c2.88,1.512,6.336-0.144,6.408-0.504c0.072-0.288-0.936,20.088,7.488,17.568c5.904-1.8,6.624-22.536,7.2-27    c2.16,2.808,4.176,8.424,8.352,7.992c3.168-0.36,6.265-7.632,6.912-10.224c1.368,3.024,2.808,6.408,5.76,5.616    c4.032-1.08,6.84-6.12,10.296-9.504C320.84,70.214,319.184,75.614,320.84,79.286z M280.988,144.98l0.072,0.144l0.216-0.072    l0.144,0.072l0,0l28.008,17.784l0.288-0.432l-27.648-17.641l26.424-9.288l-0.072,0.072l25.416,12.168l0.288-0.504l-24.984-11.952    l17.856-6.264l17.928,5.184l0.072-0.504l-17.064-4.968l21.168-7.416l-0.144-0.504l-21.168,7.344l8.352-12.672l-0.504-0.288    l-8.712,13.32l-45.072,15.695l17.784-33.984l29.521-12.528l-0.217-0.576l-28.872,12.312l9.864-19.008l15.337-6.84l-0.288-0.504    l-14.616,6.552l7.271-13.968l-0.504-0.288l-7.344,14.04l-2.52-14.904l-0.577,0.144l2.665,15.624l-9.792,18.864l-6.48-31.536    l-0.576,0.144l6.624,32.184l-17.784,34.056L274.22,118.7l0.144-0.288l-0.288-0.144l-4.392-15.696l5.328-18.864l-0.576-0.144    l-5.04,18l-7.272-25.992l-0.504,0.144l7.056,25.2L255.14,85.94l-0.432,0.36l14.328,15.84l4.32,15.624l-22.248-14.904l-0.36,0.432    l22.824,15.336l7.2,25.56l-30.096-12.456l-0.288,0.504l30.528,12.601v0.072L280.988,144.98z"/>
	</g>
</g>
</svg>